<svg width="264" height="357" viewBox="0 0 264 357" fill="none" xmlns="http://www.w3.org/2000/svg">
<path d="M187.365 282.628C188.119 282.454 188.815 282.106 189.395 281.613L187.365 282.628Z" stroke="black" stroke-width="2.89904"/>
<path d="M191.047 334.55L141.299 248.709L75.5493 135.328L22.004 42.993C20.1776 39.833 18.0033 37.5138 15.4811 36.0643C13.1909 34.7597 11.2193 34.4408 9.5089 35.1656L8.92923 35.4555C7.07384 36.4991 6.17456 38.4705 6.17456 41.3695C6.17456 44.2686 7.07384 47.2836 8.92923 50.4725L29.8311 86.5076C24.9318 92.1318 21.1627 99.0315 18.5535 107.294C15.9734 115.527 14.6693 125.123 14.6693 135.994C14.6693 150.577 17.0755 165.681 21.8879 181.306C26.7293 196.903 33.2523 211.833 41.5435 226.097C49.8058 240.36 59.517 253.493 70.7073 265.466C81.8687 277.468 93.813 287.121 106.54 294.456C116.02 299.935 125.007 303.646 133.501 305.559C142.024 307.472 149.939 307.733 157.273 306.371L177.943 341.768C179.798 344.928 181.973 347.247 184.495 348.697C187.017 350.146 189.22 350.349 191.047 349.306C192.873 348.262 193.801 346.349 193.801 343.537C193.801 340.725 192.873 337.71 191.047 334.55ZM84.1302 203.136C81.4631 204.644 78.2159 204.325 74.3891 202.093C70.5334 199.889 67.2868 196.468 64.6196 191.859C61.9235 187.22 60.5897 182.727 60.5897 178.349C60.5897 173.972 61.9235 170.986 64.6196 169.449C67.2868 167.942 70.5334 168.261 74.3891 170.493C78.2159 172.696 81.4631 176.117 84.1302 180.727C86.8263 185.336 88.1596 189.859 88.1596 194.236C88.1596 198.614 86.8263 201.6 84.1302 203.136Z" stroke="black" stroke-width="2.89904"/>
<path d="M88.1596 194.237C88.1596 198.644 86.8264 201.601 84.1302 203.137C81.4631 204.645 78.2159 204.326 74.3892 202.093C70.5334 199.89 67.2868 196.469 64.6197 191.86C61.9236 187.221 60.5897 182.728 60.5897 178.35C60.5897 173.973 61.9236 170.987 64.6197 169.45C67.2868 167.943 70.5334 168.262 74.3892 170.494C78.2159 172.697 81.4631 176.118 84.1302 180.727C86.8264 185.337 88.1596 189.859 88.1596 194.237Z" stroke="black" stroke-width="2.89904"/>
<path d="M251.783 314.547C251.783 317.359 250.855 319.272 249.028 320.316L248.449 320.606L191.047 349.306C192.874 348.262 193.802 346.349 193.802 343.537C193.802 340.725 192.874 337.71 191.047 334.55L141.3 248.71L75.55 135.329L22.0047 42.9939C20.1783 39.834 18.004 37.5147 15.4818 36.0652C13.1916 34.7607 11.2201 34.4418 9.50964 35.1665L66.9108 6.46599C68.7372 5.39334 70.9115 5.62523 73.4626 7.07476C75.9848 8.52428 78.1591 10.8435 79.9855 14.0035L103.091 53.8654L67.6356 71.6075L67.5486 71.6655L67.1424 71.8684H67.1132C67.1132 71.8684 66.8528 72.0424 66.7079 72.1583C66.5049 72.3033 66.302 72.4772 66.0991 72.6801C65.0264 73.8108 64.3596 75.3473 64.0407 77.2896C63.7219 79.203 63.8375 81.3773 64.3883 83.8125C64.9102 86.2187 65.9541 88.7409 67.4906 91.408L72.8251 100.598L170.174 268.54L172.436 272.424C173.972 275.062 175.625 277.208 177.393 278.831C179.133 280.455 180.872 281.585 182.553 282.223C184.235 282.832 185.829 282.977 187.365 282.629C188.119 282.455 188.816 282.107 189.395 281.614L197.397 277.614L224.851 263.872L249.028 305.559C250.855 308.719 251.783 311.734 251.783 314.547Z" stroke="black" stroke-width="2.89904"/>
<path d="M198.381 239.171C198.381 246.912 197.772 254.16 196.555 260.914C195.54 266.538 194.032 271.786 192.061 276.685C191.684 277.671 191.249 278.656 190.815 279.613C190.438 280.425 189.974 281.121 189.394 281.613L187.364 282.628C185.828 282.976 184.233 282.831 182.552 282.222C180.871 281.584 179.131 280.454 177.392 278.83C175.623 277.207 173.971 275.062 172.434 272.424L170.173 268.539L72.8238 100.597L67.4892 91.4072C65.9527 88.7401 64.9088 86.2179 64.387 83.8117C63.8361 81.3765 63.7205 79.2022 64.0394 77.2889C64.3583 75.3465 65.0251 73.81 66.0977 72.6794C66.3006 72.4765 66.5036 72.3025 66.7065 72.1576C66.8514 72.0416 66.9668 71.9546 67.1118 71.8677H67.1411L67.5472 71.6647L67.6342 71.6067C67.6342 71.6067 67.7496 71.5488 67.8076 71.5488C67.9525 71.4908 68.098 71.4328 68.243 71.4038C68.4459 71.3458 68.6778 71.2878 68.9098 71.2588C69.4026 71.1719 69.9244 71.1719 70.4752 71.2299C73.1424 71.5488 75.8385 72.0416 78.5636 72.7084C82.9121 73.752 87.3764 75.2595 91.9569 77.1729C99.3784 80.3329 106.772 84.0146 114.106 88.2762C117.005 89.9577 119.556 92.4509 121.672 95.8137C123.817 99.1477 124.89 102.482 124.89 105.844C124.89 116.542 128.572 128.37 135.935 141.329C143.27 154.258 151.764 162.985 161.418 167.507C164.027 168.638 166.289 170.87 168.202 174.175C170.115 177.48 170.985 180.582 170.84 183.481C170.521 191.018 172.406 198.962 176.465 207.282C180.523 215.602 185.451 221.864 191.278 226.097C193.249 227.604 194.96 229.605 196.322 232.069C197.714 234.533 198.381 236.91 198.381 239.171Z" stroke="black" stroke-width="2.89904"/>
<path d="M256.362 210.181C256.362 217.922 255.754 225.169 254.536 231.924C253.318 238.679 251.405 244.912 248.796 250.623C248.042 252.275 246.882 253.29 245.346 253.638L224.85 263.872L197.396 277.613L189.395 281.614C189.975 281.121 190.438 280.425 190.815 279.613C191.25 278.657 191.685 277.671 192.062 276.685C194.033 271.786 195.54 266.539 196.555 260.914C197.773 254.16 198.381 246.912 198.381 239.172C198.381 236.91 197.715 234.533 196.323 232.069C194.961 229.605 193.25 227.604 191.279 226.097C185.452 221.864 180.524 215.602 176.465 207.282C172.406 198.962 170.521 191.019 170.84 183.481C170.985 180.582 170.116 177.48 168.202 174.175C166.289 170.87 164.028 168.638 161.418 167.507C151.765 162.985 143.27 154.259 135.936 141.329C128.572 128.37 124.891 116.542 124.891 105.845C124.891 102.482 123.818 99.1478 121.673 95.8139C119.556 92.451 117.006 89.9579 114.107 88.2764C106.772 84.0148 99.3791 80.333 91.9576 77.1731C87.3771 75.2597 82.9129 73.7522 78.5643 72.7085C75.8392 72.0418 73.1431 71.5489 70.476 71.23C69.9251 71.1721 69.403 71.172 68.9102 71.259C68.6783 71.259 68.4463 71.346 68.2434 71.404C68.0985 71.433 67.9532 71.4909 67.8083 71.5489C67.7503 71.5489 67.6929 71.5779 67.6349 71.6069L103.09 53.8937L125.645 42.6165C126.428 42.2686 127.384 42.1526 128.457 42.2396C135.357 43.0803 142.488 45.0517 149.938 48.1826C157.36 51.3426 164.753 55.0244 172.087 59.286C174.986 60.9674 177.537 63.4606 179.654 66.8235C181.799 70.1574 182.872 73.4913 182.872 76.8542C182.872 87.5517 186.553 99.3798 193.917 112.338C201.251 125.268 209.745 133.994 219.399 138.517C222.008 139.647 224.27 141.88 226.183 145.185C228.097 148.49 228.966 151.592 228.821 154.491C228.502 162.028 230.387 169.971 234.446 178.292C238.505 186.612 243.433 192.874 249.26 197.107C251.231 198.614 252.941 200.614 254.304 203.079C255.696 205.543 256.362 207.92 256.362 210.181Z" stroke="black" stroke-width="2.89904"/>
</svg>
