<svg width="338" height="355" viewBox="0 0 338 355" fill="none" xmlns="http://www.w3.org/2000/svg">
<path d="M205.013 199.393C205.959 199.008 206.847 198.564 207.735 198.061C207.823 198.002 207.882 197.973 207.971 197.914L205.013 199.393Z" stroke="black" stroke-width="2.95833"/>
<path d="M197.942 279.387V290.303C197.942 297.816 195.605 302.875 190.931 305.537C186.286 308.2 180.695 307.638 174.157 303.851L31.4766 221.492C24.9387 217.705 19.3477 211.818 14.6735 203.772C10.0289 195.755 7.69189 187.974 7.69189 180.46V169.544C7.69189 161.823 9.43734 155.728 12.8986 151.232C14.644 148.983 16.6554 147.327 18.9629 146.173C21.2704 145.019 23.8442 144.428 26.7138 144.398C38.9908 144.428 51.4752 146.35 64.1665 150.137C65.054 150.403 65.9711 150.699 66.8586 150.995C78.6919 154.752 90.6433 160.166 102.802 167.177C115.878 174.721 128.776 183.921 141.438 194.778C154.129 205.606 166.614 218.12 178.891 232.26C183.328 237.438 187.085 243.147 190.162 249.36C191.079 251.223 191.937 253.117 192.735 255.069C196.197 263.56 197.942 271.665 197.942 279.387Z" stroke="black" stroke-width="2.95833"/>
<path d="M205.013 199.393C205.959 199.008 206.847 198.564 207.735 198.061C207.823 198.002 207.882 197.973 207.971 197.914L205.013 199.393Z" stroke="black" stroke-width="2.95833"/>
<path d="M269.268 317.843V331.481C269.268 338.995 266.93 344.083 262.286 346.716C257.612 349.378 252.021 348.816 245.483 345.059L215.16 327.546C217.349 324.706 218.976 321.274 220.07 317.251C221.165 313.198 221.698 308.82 221.698 304.027V290.154C221.668 282.373 220.159 273.972 217.201 264.949C216.402 262.464 215.456 259.949 214.42 257.375C209.569 245.365 202.675 233.472 193.771 221.728C203.859 228.916 213.385 236.756 222.289 245.187C231.223 253.648 239.537 262.493 247.258 271.723C248.382 273.055 249.447 274.386 250.453 275.717C256.073 282.935 260.452 289.799 263.617 296.336C267.375 304.086 269.268 311.246 269.268 317.843Z" stroke="black" stroke-width="2.95833"/>
<path d="M221.698 167.591C221.698 173.39 221.017 178.478 219.597 182.827C217.438 189.631 213.562 194.66 207.971 197.914L205.012 199.393C196.256 203.121 185.991 201.553 174.157 194.719C171.968 193.447 169.187 191.583 165.815 189.069C162.472 186.554 159.691 184.306 157.502 182.383C162.857 178.182 166.968 172.502 169.838 165.284C172.205 159.338 173.595 152.622 174.009 145.078C174.098 143.481 174.157 141.824 174.157 140.138C174.157 139.458 174.157 138.748 174.128 138.038C174.069 135.109 173.861 132.121 173.536 129.103C172.855 122.92 171.613 116.56 169.838 110.022C166.968 99.4904 162.857 89.0475 157.502 78.6934C160.283 79.1371 163.063 80.0246 165.815 81.2671C168.595 82.5392 171.377 83.9592 174.157 85.5567C186.139 92.5088 196.552 103.011 205.367 117.093C206.196 118.365 206.965 119.666 207.734 120.998C213.474 130.908 217.467 140.641 219.656 150.137C220.13 152.208 220.514 154.22 220.84 156.261C221.402 160.077 221.698 163.834 221.698 167.591Z" stroke="black" stroke-width="2.95833"/>
<path d="M217.201 264.949C220.159 273.972 221.668 282.374 221.698 290.154L190.931 305.536C195.605 302.874 197.942 297.815 197.942 290.302V279.386C197.942 271.664 196.197 263.559 192.735 255.068C191.937 253.116 191.079 251.222 190.162 249.359C187.085 243.146 183.328 237.437 178.891 232.259C166.614 218.119 154.129 205.605 141.438 194.777C128.777 183.92 115.878 174.72 102.802 167.176C90.6433 160.165 78.692 154.751 66.8586 150.994C65.9711 150.698 65.054 150.402 64.1665 150.136C51.4753 146.349 38.9908 144.427 26.7138 144.397C23.8443 144.427 21.2705 145.018 18.963 146.172L70.5861 120.346C70.9411 120.967 71.2961 121.588 71.7103 122.18C80.4966 136.173 90.8504 146.616 102.802 153.538C115.878 161.082 127.09 162.206 136.409 156.881L167.885 141.143C169.956 142.385 171.968 143.687 174.009 145.077C173.595 152.621 172.205 159.337 169.838 165.283C166.968 172.501 162.857 178.181 157.502 182.382C159.691 184.305 162.472 186.553 165.815 189.068C169.187 191.582 171.968 193.446 174.157 194.718C185.991 201.552 196.256 203.12 205.013 199.392C205.959 199.008 206.847 198.564 207.734 198.061C207.823 198.002 207.882 197.972 207.971 197.913L225.662 189.068C229.212 192.736 232.673 196.552 236.164 200.517L193.771 221.728C202.675 233.472 209.569 245.365 214.42 257.376C215.456 259.949 216.402 262.464 217.201 264.949Z" stroke="black" stroke-width="2.95833"/>
<path d="M150.372 126.412C150.372 128.098 150.313 129.725 150.194 131.293C149.248 143.659 144.633 152.179 136.409 156.882C127.09 162.207 115.878 161.083 102.802 153.54C90.8503 146.617 80.4964 136.174 71.7102 122.181C71.296 121.59 70.941 120.968 70.586 120.347C70.1127 119.607 69.6686 118.868 69.2249 118.099C59.9061 102.035 55.2618 86.5037 55.2618 71.5049C55.2618 56.5062 59.9061 46.3295 69.2249 41.0045L71.5918 39.8212C80.4077 35.9458 90.8207 37.4545 102.802 44.377C107.18 46.9212 111.352 49.9091 115.316 53.4295C123.185 60.3224 130.226 69.1087 136.409 79.8178C143.331 91.7991 147.709 103.485 149.455 114.904C150.076 118.779 150.372 122.625 150.372 126.412Z" stroke="black" stroke-width="2.95833"/>
<path d="M328.434 288.261V301.898C328.434 309.412 326.097 314.5 321.453 317.133L262.286 346.716C266.93 344.083 269.268 338.995 269.268 331.481V317.843C269.268 311.246 267.375 304.087 263.617 296.336C260.452 289.799 256.073 282.936 250.453 275.717C249.447 274.386 248.382 273.055 247.258 271.724C239.537 262.494 231.223 253.648 222.289 245.187C213.385 236.756 203.859 228.917 193.771 221.728L236.164 200.517L252.938 192.145C263.025 199.333 272.551 207.173 281.456 215.604C290.39 224.065 298.703 232.91 306.424 242.14C313.583 250.808 319.027 259.003 322.784 266.754C326.541 274.505 328.434 281.664 328.434 288.261Z" stroke="black" stroke-width="2.95833"/>
<path d="M280.864 138.008C280.864 153.036 276.22 163.183 266.901 168.479L264.505 169.662L225.662 189.069L207.971 197.914C213.562 194.66 217.438 189.631 219.597 182.827C221.017 178.478 221.698 173.389 221.698 167.591C221.698 163.834 221.402 160.077 220.84 156.261C220.514 154.219 220.13 152.208 219.656 150.137C217.467 140.641 213.474 130.908 207.734 120.997C206.965 119.666 206.196 118.364 205.367 117.092C196.552 103.011 186.139 92.5086 174.157 85.5565C171.377 83.959 168.595 82.539 165.815 81.2669C163.063 80.0244 160.283 79.1369 157.502 78.6932L199.54 57.6594L216.669 49.1099C219.449 49.5536 222.23 50.4411 224.981 51.6836C227.762 52.9557 230.543 54.3757 233.324 55.9732C246.4 63.5465 257.582 75.3503 266.901 91.414C276.22 107.478 280.864 123.009 280.864 138.008Z" stroke="black" stroke-width="2.95833"/>
<path d="M173.536 129.103C173.861 132.12 174.069 135.108 174.128 138.037L167.885 141.143L136.409 156.881C144.633 152.178 149.248 143.658 150.195 131.292C150.313 129.724 150.372 128.097 150.372 126.41C150.372 122.624 150.076 118.778 149.455 114.903C147.71 103.483 143.331 91.7979 136.409 79.8167C130.226 69.1075 123.185 60.3213 115.316 53.4284C111.352 49.908 107.18 46.92 102.802 44.3759C90.8208 37.4534 80.4078 35.9446 71.5919 39.82L128.392 11.4201C137.71 6.12471 148.893 7.24887 161.969 14.7926C175.045 22.3364 186.257 34.14 195.576 50.2334C197.025 52.7184 198.327 55.2034 199.54 57.6588L157.502 78.6925C162.857 89.0467 166.968 99.4896 169.838 110.021C171.613 116.559 172.855 122.92 173.536 129.103Z" stroke="black" stroke-width="2.95833"/>
<path d="M18.9631 146.172L18.6377 146.32" stroke="black" stroke-width="2.95833"/>
</svg>
