<svg width="304" height="356" viewBox="0 0 304 356" fill="none" xmlns="http://www.w3.org/2000/svg">
<path d="M154.965 181.768C154.965 182.28 154.935 182.762 154.904 183.213C154.603 186.313 153.37 188.51 151.172 189.775L105.723 215.69C103.165 217.135 100.155 216.804 96.6631 214.667C93.1716 212.53 90.1316 209.249 87.6033 204.854C85.2556 200.61 84.1419 196.487 84.2623 192.544C84.3526 188.601 85.5867 185.952 87.9043 184.628L111.442 171.234L20.2115 118.56C16.6297 116.484 13.5897 113.353 11.1517 109.139C8.7137 104.926 7.50977 100.772 7.50977 96.6483C7.50977 92.5248 8.7137 89.7256 11.1517 88.341L11.9042 87.9798C14.1917 87.0468 16.9909 87.5283 20.2115 89.3945L111.442 142.038L87.6033 100.922C85.5566 97.461 84.4426 93.9996 84.1717 90.6285C84.1416 90.0868 84.1118 89.5751 84.1118 89.0634C84.1118 85.1806 85.2556 82.4416 87.6033 80.8765L88.8976 80.2444C91.0045 79.4317 93.5328 79.8531 96.4825 81.4483C100.094 83.4048 103.165 86.5953 105.723 90.9596L116.288 109.17L145.002 158.712L151.172 169.368C153.701 173.732 154.965 177.886 154.965 181.768Z" stroke="black" stroke-width="2.87363"/>
<path d="M236.322 126.626V330.848C236.322 338.885 233.854 344.302 228.858 347.132C223.891 349.991 217.902 349.389 210.919 345.356L134.618 301.321C131.036 299.244 127.996 296.084 125.588 291.9C123.15 287.686 121.916 283.502 121.916 279.379C121.916 275.255 123.15 272.486 125.588 271.102L126.341 270.74C128.598 269.807 131.397 270.259 134.618 272.125L210.919 316.16V111.968L187.803 98.6344L151.894 77.8661L134.618 67.9033C131.819 66.2779 129.32 63.9904 127.244 61.0407C126.642 60.2581 126.1 59.3853 125.588 58.4823C123.15 54.2985 121.916 50.1148 121.916 45.9912C121.916 41.8676 123.15 39.0985 125.588 37.714L126.341 37.3528C128.598 36.4197 131.397 36.8712 134.618 38.7373L155.206 50.6264H155.236L158.847 52.7334L210.919 82.7722C217.902 86.8055 223.891 93.1262 228.858 101.704C233.854 110.313 236.322 118.62 236.322 126.626Z" stroke="black" stroke-width="2.87363"/>
<path d="M156.68 51.3488C156.198 51.0779 155.687 50.8372 155.235 50.6265L158.847 52.7334C158.155 52.2217 157.432 51.7401 156.68 51.3488Z" stroke="black" stroke-width="2.87363"/>
<path d="M111.441 142.037L20.2111 89.3935C16.9905 87.5273 14.1913 87.0457 11.9038 87.9788L71.3496 58.241C73.7876 56.8564 76.8273 57.2176 80.4091 59.2945L103.796 72.7788L88.897 80.2434L87.6027 80.8754C85.255 82.4406 84.1115 85.1796 84.1115 89.0624C84.1115 89.5741 84.1413 90.0857 84.1714 90.6275C84.4423 93.9986 85.556 97.46 87.6027 100.921L111.441 142.037Z" stroke="black" stroke-width="2.87363"/>
<path d="M296.52 96.5265V300.748C296.52 308.785 294.052 314.203 289.056 317.032L287.49 317.814L228.858 347.131C233.854 344.302 236.322 338.884 236.322 330.847V126.625C236.322 118.619 233.854 110.312 228.858 101.704C223.891 93.1253 217.902 86.8045 210.919 82.7712L158.847 52.7324C158.155 52.2207 157.433 51.7391 156.68 51.3479C156.199 51.077 155.687 50.8362 155.235 50.6255H155.205L134.618 38.7364C131.397 36.8702 128.598 36.4188 126.34 37.3518L185.786 7.61388C188.194 6.22933 191.234 6.56042 194.816 8.63725L271.117 52.6722C278.1 56.7055 284.089 63.0263 289.056 71.6045C294.052 80.2128 296.52 88.5201 296.52 96.5265Z" stroke="black" stroke-width="2.87363"/>
<path d="M210.919 251.326V316.159L134.618 272.124C131.397 270.258 128.598 269.806 126.34 270.739L185.786 241.002C188.194 239.617 191.234 239.948 194.816 242.025L210.919 251.326Z" stroke="black" stroke-width="2.87363"/>
<path d="M210.919 138.485V159.945L165.921 185.59L105.723 215.689L151.172 189.774C153.37 188.509 154.604 186.312 154.905 183.212C154.935 182.76 154.965 182.279 154.965 181.767C154.965 177.884 153.701 173.731 151.172 169.366L145.002 158.711L116.288 109.168L105.723 90.9585C103.164 86.5941 100.094 83.4036 96.4824 81.4472C93.5327 79.8519 91.0044 79.4305 88.8975 80.2432L103.796 72.7787L127.244 61.04C129.321 63.9897 131.819 66.2773 134.618 67.9026L151.895 77.8654L187.803 98.6337L210.919 138.485Z" stroke="black" stroke-width="2.87363"/>
</svg>
