<svg width="120" height="120" viewBox="0 0 120 120" fill="none" xmlns="http://www.w3.org/2000/svg">
<g clip-path="url(#clip0_60_886)">
<g clip-path="url(#clip1_60_886)">
<g clip-path="url(#clip2_60_886)">
<mask id="mask0_60_886" style="mask-type:luminance" maskUnits="userSpaceOnUse" x="-1" y="0" width="121" height="120">
<path d="M-0.0100098 0H119.99V120H-0.0100098V0Z" fill="#C4C4C4"/>
</mask>
<g mask="url(#mask0_60_886)">
<path d="M59.99 114.542C90.1147 114.542 114.535 90.1207 114.535 59.9963C114.535 29.8716 90.1147 5.45068 59.99 5.45068C29.8654 5.45068 5.44458 29.8716 5.44458 59.9963C5.44458 90.1207 29.8654 114.542 59.99 114.542Z" fill="#ECF3FF"/>
<path d="M45.2629 26.7273L26.1719 19.091V21.8183L42.5355 36.5455L41.4447 51.8183L36.5355 72.5455L29.9901 81.8183L31.6265 94.9091L39.8083 96.0001L46.3537 94.9091L52.8991 96.0001L64.3537 88.9091L66.5355 77.4547L80.1719 64.3637L86.1719 68.7273L92.1719 77.4547V94.9091L100.354 92.7273L108.535 74.7273L110.717 51.8183L81.2629 8.72737L76.3537 7.63647L45.2629 26.7273Z" fill="white"/>
<path d="M16.3536 58.2506C16.5718 56.3962 16.6808 54.5416 17.2263 52.7962C18.7536 45.5962 21.699 38.7234 26.0628 33.1598C26.8264 32.178 27.481 31.3052 28.3535 30.4324L23.4446 25.8506C22.5718 27.1598 21.699 28.4688 20.9354 29.778C16.899 36.7598 14.7172 44.6142 14.1718 52.3598C13.9536 54.3234 14.0627 56.287 14.0627 58.1416C14.0627 60.1052 14.2808 61.9598 14.6081 63.9234C15.1536 67.7416 16.1354 71.4506 17.4445 74.9416C16.5718 71.2324 16.1354 67.5234 16.0263 63.7052C16.0263 61.9598 16.0263 60.1052 16.3536 58.2506Z" fill="#94A6C4"/>
<path d="M38.7172 22.9091C35.99 21.6 32.1718 19.8545 29.4446 18.5454C31.9536 16.1454 36.5354 13.6364 40.3536 12C37.6264 14.1818 37.6264 18.7636 38.7172 22.9091Z" fill="#94A6C4"/>
<path d="M27.699 41.4507C26.1718 45.2689 25.19 49.3053 24.8629 53.2325C24.7536 54.2143 24.6446 55.1963 24.7536 56.1781C24.7536 57.1599 24.7536 58.1417 24.8629 59.1235L24.9718 60.6507C24.9718 61.0871 25.0811 61.6325 25.19 62.0689L25.6264 65.0143L25.7354 62.0689C25.7354 61.6325 25.7354 61.0871 25.8447 60.6507L26.0629 59.2325C26.1718 58.2507 26.39 57.2689 26.499 56.3963C26.6082 55.4143 26.9354 54.5417 27.1536 53.6689C28.1354 49.9599 29.7718 46.5781 31.7354 43.4143C33.0447 41.3417 34.5718 39.4871 36.2082 37.7417L31.9536 33.7053C30.099 36.2143 28.79 38.7235 27.699 41.4507Z" fill="#94A6C4"/>
<path d="M90.8628 22.7963C85.081 20.7236 82.79 21.3781 82.79 21.3781C82.79 21.3781 79.19 31.0871 65.4446 31.7417C65.5536 31.8507 77.881 39.0507 90.8628 22.7963Z" fill="#94A6C4"/>
<path d="M94.79 42.1052C94.2446 54.1052 84.9717 58.578 77.7717 57.7052C73.8446 57.1598 68.0628 59.0144 68.0628 59.0144L60.7535 71.6688L58.3535 72.5416L62.4989 64.9052C62.4989 64.9052 52.6807 68.5052 51.9171 68.8326C51.1535 69.1598 48.0989 73.6326 45.59 78.3234C45.0446 75.0506 42.9717 72.7598 42.9717 72.6506C42.9717 73.1962 44.0628 83.0144 42.8628 85.7416C41.6628 88.578 36.3171 90.4326 36.3171 90.4326L44.1717 93.378L44.7171 93.5962L50.6082 88.0326L52.79 79.7416L55.5171 77.778C55.5171 77.778 62.2807 77.0144 61.2989 83.1234C60.8628 86.0688 57.59 85.8506 53.8807 88.1416C51.6989 89.4506 48.8628 91.5234 47.4446 92.9416L51.3717 95.778C51.3717 95.778 56.0628 95.0144 62.7171 89.778C69.4807 84.3234 66.0989 78.4326 66.0989 78.4326L77.1171 65.2326L84.3171 65.778C84.3171 65.778 96.7535 68.9416 100.79 80.7234C108.863 58.1416 95.881 43.1962 94.79 42.1052Z" fill="#94A6C4"/>
<path d="M107.445 32.7272C109.408 33.6 110.935 34.9052 112.354 36.1052C102.535 2.0689 70.6811 5.88709 70.0264 6.10527C70.79 4.90527 73.6264 3.05073 76.2447 2.0689C76.2447 2.0689 62.7172 -2.73109 50.39 5.77799C50.6082 3.81437 53.0082 0.868904 53.0082 0.868904C35.99 8.18183 34.899 16.9091 38.1718 22.1416C35.4446 20.8325 32.7172 19.6325 29.99 18.3234C21.59 14.2871 14.39 10.9053 13.9537 10.7962C13.19 10.578 12.8628 10.9053 12.8628 10.9053C12.8628 10.9053 12.5355 11.2325 13.19 11.8871C23.1173 21.8144 29.4447 27.8182 40.0264 37.5234C38.2811 41.4506 38.0629 43.4145 38.9354 45.487C40.1354 48.3234 40.0264 49.7416 39.59 51.5963C39.0447 53.4506 34.6811 69.9234 33.9172 71.7781C33.1536 73.7416 27.3718 80.287 27.2629 82.4688C27.1536 84.6506 28.899 94.2506 31.299 95.6688C33.1536 96.6506 37.6264 98.7234 40.899 99.1599C41.99 99.3781 43.0811 99.2688 43.6264 98.8327C45.8082 97.4145 46.3536 97.1963 47.7718 97.3052L48.099 97.4145C48.6446 97.5234 49.299 97.7417 50.1718 97.8506C52.0264 98.0688 54.4264 98.0688 56.39 96.7599C59.2264 94.5781 64.0264 91.8506 65.6629 90.4324C67.6264 88.4688 68.9354 85.7417 68.9354 82.687C68.9354 79.9599 70.79 77.7781 72.8629 75.5963C74.8264 73.6324 79.7354 68.8324 81.699 66.7599C86.7172 68.5052 88.5718 75.7052 88.5718 79.6327C88.5718 90.5416 79.7354 106.469 59.4446 107.669C58.6811 107.669 57.9172 107.778 57.0446 107.778C30.6446 107.778 9.04458 84.4324 9.04458 57.0506C9.04458 35.4506 22.0229 20.8239 22.132 20.7149C11.6592 30.6422 5.44458 44.5052 5.44458 59.9963C5.44458 90.1052 29.8811 114.545 59.99 114.545C90.099 114.545 114.535 90.1052 114.535 59.9963C114.535 50.1781 112.026 40.691 107.445 32.7272ZM32.9354 25.7416C31.4082 24.4324 29.8811 23.1234 28.3536 21.8144C30.4264 22.9053 32.499 23.9963 34.3536 24.9781C40.0264 27.9234 44.7172 30.5417 45.59 31.1963C45.59 31.1963 45.699 31.3052 45.8082 31.4145C46.3536 32.0688 46.899 33.1599 45.9172 34.5781C45.3718 35.3417 44.7172 35.1234 43.7354 34.4688C42.8629 33.9234 38.1718 30.2145 32.9354 25.7416ZM64.6811 82.4688C64.6811 84.3234 63.8082 85.9598 62.7172 87.1599C62.1718 87.7052 59.99 89.1234 58.4629 90.1052C56.9354 91.1963 55.299 92.1781 53.99 93.1599C53.4446 93.487 52.5718 93.7052 51.1536 93.487L47.7718 93.0506C49.8447 90.9781 55.5172 86.5052 57.3718 85.6327C59.5536 84.5416 60.8629 83.3417 59.8811 80.8324C59.0082 78.2145 55.6264 78.3234 55.6264 78.3234C55.6264 78.3234 57.699 77.7781 59.3354 77.9963C57.2629 77.1234 54.4264 77.3416 53.0082 78.3234C51.4811 79.4145 51.0446 83.887 50.0629 86.6145C49.0811 89.4506 46.899 90.6506 43.6264 92.9417C41.7718 94.1416 40.5718 94.4688 39.699 94.3598C37.8447 93.8145 35.6629 92.8324 34.1354 92.0688C33.2629 90.4324 32.1718 85.3052 32.0629 83.2324C32.499 82.1416 34.2447 79.9598 35.1172 78.6506C36.8629 76.2506 37.8447 74.8324 38.2811 73.5235C39.0447 71.6688 42.2082 59.9963 43.4082 55.087C44.6082 57.1599 46.2446 60.6506 45.4811 62.6145C49.4082 58.4688 47.6628 53.5599 46.79 51.5963C46.0264 49.6324 45.1536 45.8145 46.899 42.1052C48.5354 38.3963 54.2082 28.3599 54.2082 28.3599C54.2082 28.3599 55.19 30.9781 57.2629 30.7599C59.2264 30.5417 78.099 9.37799 78.099 9.37799C78.099 9.37799 81.0446 19.1962 75.59 25.1963C70.1354 31.1963 65.5536 31.8506 65.5536 31.8506C65.5536 31.8506 71.6628 33.8145 77.99 30.5417C79.6264 36.4324 81.0446 42.5416 81.0446 43.3052C80.6082 44.0688 74.499 54.3234 73.9536 54.9781C73.7354 55.1963 71.99 55.4145 70.899 55.4145C68.9354 55.7416 67.7354 55.8506 67.19 56.1781C66.3172 56.7234 61.299 66.2145 58.899 70.7963C56.7172 71.1234 54.5354 71.887 52.79 73.9599C53.6629 73.5234 56.1718 73.5235 58.0264 73.5235C59.6628 73.6324 64.1354 76.9052 64.6811 82.0324C64.6811 82.3599 64.6811 82.3599 64.6811 82.4688ZM51.9172 87.0506C53.1172 85.7416 53.3354 83.2324 53.5536 82.4688C53.7718 81.7052 54.2082 80.287 55.19 80.1781C56.1718 80.0688 58.2446 80.7234 58.0264 82.3599C57.8082 83.887 56.1718 83.9963 54.8629 84.7598C53.99 85.3052 52.1354 86.8324 51.9172 87.0506ZM99.3718 88.4688C98.0629 74.5052 88.4629 67.9599 84.2082 65.7781C89.1172 65.2324 101.772 61.4145 94.79 42.1052C95.0082 42.9781 96.9718 52.5781 91.4082 57.5963C85.7354 62.7234 77.4446 60.5416 76.4629 60.5416C75.59 60.4324 71.4446 64.4688 65.7718 72.2145C65.2264 71.887 62.9354 71.0145 60.099 71.1234C62.9354 65.7781 67.19 58.1416 67.8447 57.487C68.0629 57.2688 69.9172 57.0506 71.0082 56.9417C73.19 56.7234 74.2811 56.5052 74.7172 56.0688C74.9354 55.7416 76.4629 53.3416 77.99 50.7234C78.9718 50.8324 81.59 51.0506 81.9172 50.9417C82.1354 50.7234 85.0811 45.487 85.19 44.8324C85.299 44.3963 83.2264 36.2145 81.9172 30.9781C108.863 43.7416 113.117 71.887 99.3718 88.4688Z" fill="#1C324F"/>
<path d="M73.4083 23.5598C76.4629 20.8325 76.0265 16.1416 76.0265 16.1416L66.8629 26.287C66.7537 26.287 69.5901 26.8324 73.4083 23.5598Z" fill="#1C324F"/>
<path d="M39.1535 81.2689L40.681 76.9053C40.681 76.9053 35.9899 82.9053 35.5535 83.7781C35.1171 84.7599 35.3353 86.6145 36.8628 86.7235C38.3899 86.8327 40.4628 84.8689 40.681 83.3417C41.0081 81.2689 39.1535 81.2689 39.1535 81.2689Z" fill="#1C324F"/>
<path d="M53.5537 54.8688C56.8265 54.5416 62.7173 51.9234 65.2265 49.8506C67.7355 47.6688 67.2991 42.8688 63.3719 41.4506C64.6811 39.2688 66.8629 34.687 66.8629 34.687C66.8629 34.687 52.7901 51.1598 51.6991 51.378C50.6083 51.5962 50.1719 47.4506 50.1719 47.4506C46.8991 55.4144 52.4629 57.378 53.5537 54.8688Z" fill="#1C324F"/>
<path d="M54.7537 52.7963L62.0629 43.5234C62.0629 43.5234 65.2265 45.7052 63.1537 48.2142C60.5355 51.1598 54.7537 52.7963 54.7537 52.7963Z" fill="#FFD925"/>
<path d="M74.1717 11.4507L69.1535 16.9052C65.1171 18.1052 61.1899 20.287 57.4807 23.887C57.4807 21.8143 63.4807 12.7598 74.1717 11.4507Z" fill="#D82423"/>
<path d="M80.499 16.1416C80.6082 14.7235 80.499 13.0871 80.2808 11.5598C86.8264 12.4325 94.5718 16.2507 103.408 24.8688C96.099 20.8325 88.3536 17.1235 80.499 16.1416Z" fill="#D82423"/>
<path d="M82.4629 23.2324C82.4629 23.2324 106.79 33.9233 111.263 63.9233C111.917 24.8687 84.2083 22.9052 82.4629 23.2324Z" fill="#D82423"/>
<path d="M47.0083 5.99609C46.6808 6.86884 32.9355 21.5961 50.0629 27.378C40.6808 18.9779 46.899 6.1052 47.0083 5.99609Z" fill="#D82423"/>
<path d="M54.3173 25.0869C54.3173 25.0869 55.7355 8.39606 65.7719 3.92334C65.0083 4.14152 44.6083 10.3597 54.3173 25.0869Z" fill="#D82423"/>
</g>
</g>
</g>
</g>
<defs>
<clipPath id="clip0_60_886">
<rect width="120" height="120" fill="white" transform="translate(-0.0100098)"/>
</clipPath>
<clipPath id="clip1_60_886">
<rect width="120" height="120" fill="white" transform="translate(-0.0100098)"/>
</clipPath>
<clipPath id="clip2_60_886">
<rect width="120" height="120" fill="white" transform="translate(-0.0100098)"/>
</clipPath>
</defs>
</svg>
