<svg width="30" height="62" viewBox="0 0 30 62" fill="none" xmlns="http://www.w3.org/2000/svg">
<path d="M29.1768 2.17678C29.2744 2.07915 29.2744 1.92085 29.1768 1.82322L27.5858 0.232233C27.4882 0.134602 27.3299 0.134602 27.2322 0.232233C27.1346 0.329864 27.1346 0.488155 27.2322 0.585786L28.6464 2L27.2322 3.41421C27.1346 3.51184 27.1346 3.67014 27.2322 3.76777C27.3299 3.8654 27.4882 3.8654 27.5858 3.76777L29.1768 2.17678ZM0.5 61.25H3.5V60.75H0.5V61.25ZM15.75 49V14H15.25V49H15.75ZM27.5 2.25H29V1.75H27.5V2.25ZM15.75 14C15.75 7.51065 21.0107 2.25 27.5 2.25V1.75C20.7345 1.75 15.25 7.23451 15.25 14H15.75ZM3.5 61.25C10.2655 61.25 15.75 55.7655 15.75 49H15.25C15.25 55.4893 9.98935 60.75 3.5 60.75V61.25Z" fill="#13F187"/>
</svg>
