<svg width="61" height="23" viewBox="0 0 61 23" fill="none" xmlns="http://www.w3.org/2000/svg">
<path d="M32.3548 1.00001L32.3548 1.25001L32.3548 1.00001ZM47 1L47 0.750004L47 1ZM58.8232 22.1768C58.9209 22.2744 59.0791 22.2744 59.1768 22.1768L60.7678 20.5858C60.8654 20.4882 60.8654 20.3299 60.7678 20.2322C60.6701 20.1346 60.5118 20.1346 60.4142 20.2322L59 21.6464L57.5858 20.2322C57.4882 20.1346 57.3299 20.1346 57.2322 20.2322C57.1346 20.3299 57.1346 20.4882 57.2322 20.5858L58.8232 22.1768ZM-2.18559e-08 1.25L32.3548 1.25001L32.3548 0.750005L2.18555e-08 0.750002L-2.18559e-08 1.25ZM32.3548 1.25001L47 1.25L47 0.750004L32.3548 0.750005L32.3548 1.25001ZM58.75 13L58.75 22L59.25 22L59.25 13L58.75 13ZM47 1.25C53.4893 1.25 58.75 6.51066 58.75 13L59.25 13C59.25 6.23452 53.7655 0.750005 47 0.750004L47 1.25Z" fill="#13F187"/>
</svg>
