<svg width="11" height="11" viewBox="0 0 11 11" fill="none" xmlns="http://www.w3.org/2000/svg">
<path d="M6.95808 3.57544C7.5508 3.57543 8.02854 3.57542 8.4043 3.62594C8.7944 3.67839 9.12283 3.79059 9.38374 4.05146C9.6446 4.31234 9.75681 4.64078 9.80925 5.03093C9.85974 5.40664 9.85974 5.88438 9.85974 6.4771V6.95808C9.85974 7.5508 9.85974 8.02854 9.80925 8.4043C9.75681 8.7944 9.6446 9.12283 9.38374 9.38374C9.12283 9.6446 8.7944 9.75681 8.4043 9.80925C8.02854 9.85974 7.5508 9.85974 6.95808 9.85974H6.4771C5.88438 9.85974 5.40664 9.85974 5.03088 9.80925C4.64078 9.75681 4.31234 9.6446 4.05146 9.3837C3.79059 9.12283 3.67839 8.7944 3.62594 8.4043C3.57542 8.02854 3.57543 7.5508 3.57544 6.95808V6.4771C3.57543 5.88438 3.57542 5.40664 3.62594 5.03088C3.67839 4.64078 3.79059 4.31234 4.05146 4.05146C4.31234 3.79059 4.64078 3.67839 5.03093 3.62594C5.40664 3.57542 5.88438 3.57543 6.4771 3.57544H6.95808Z" fill="white"/>
<path d="M2.9253 6.43898C2.92526 5.87808 2.92522 5.36367 2.9816 4.9444C3.0437 4.48244 3.18982 3.9938 3.59173 3.59188C3.99365 3.18997 4.48229 3.04385 4.94425 2.98175C5.36352 2.92538 5.87792 2.92541 6.43883 2.92545H7.408C7.53628 2.92545 7.60043 2.92545 7.639 2.88393C7.67757 2.8424 7.67298 2.77991 7.66379 2.65494C7.65577 2.54642 7.64555 2.44391 7.6325 2.34705C7.57646 1.93118 7.46438 1.58559 7.22541 1.2944C7.13985 1.19017 7.04429 1.09458 6.94006 1.00904C6.63278 0.756879 6.26495 0.646003 5.81816 0.593184C5.38289 0.541739 4.83278 0.541744 4.13835 0.541748H4.09595C3.40153 0.541744 2.85139 0.541739 2.41616 0.593184C1.96934 0.645998 1.60151 0.756879 1.29425 1.00904C1.19001 1.09458 1.09443 1.19017 1.00889 1.2944C0.756727 1.60166 0.64585 1.96949 0.593031 2.41631C0.541587 2.85154 0.541591 3.40168 0.541596 4.0961V4.1385C0.541591 4.83293 0.541587 5.38305 0.593031 5.81827C0.645846 6.2651 0.756727 6.63293 1.00889 6.94021C1.09443 7.04444 1.19001 7.14001 1.29425 7.22556C1.58544 7.46454 1.93103 7.57661 2.3469 7.63265C2.44375 7.6457 2.54627 7.65593 2.65479 7.66394C2.77976 7.67313 2.84225 7.67773 2.88377 7.63915C2.9253 7.60058 2.9253 7.53644 2.9253 7.40815V6.43898Z" fill="white"/>
</svg>
